<svg id="Layer_1" data-name="Layer 1" xmlns="http://www.w3.org/2000/svg" viewBox="0 0 63.79 80.48"><defs><style>.cls-1{opacity:0.92;}.cls-2{fill:#ddeedf;}.cls-3{fill:none;stroke:#5c715e;stroke-miterlimit:10;}</style></defs><g class="cls-1"><rect class="cls-2" x="32.22" y="59.53" width="13.62" height="13.62" transform="translate(-52.25 33.95) rotate(-45)"/><rect class="cls-3" x="32.22" y="59.53" width="13.62" height="13.62" transform="translate(-52.25 33.95) rotate(-45)"/><rect class="cls-2" x="41.85" y="69.16" width="13.62" height="13.62" transform="translate(-56.24 43.58) rotate(-45)"/><rect class="cls-3" x="41.85" y="69.16" width="13.62" height="13.62" transform="translate(-56.24 43.58) rotate(-45)"/><path class="cls-2" d="M19.77,37.44l-.83.83A30.26,30.26,0,0,0,18.19,45v.56a45.72,45.72,0,0,0,1,7.29c.25,1.15.55,2.32.93,3.51l9.26-9.26Z" transform="translate(-16.77 -13.08)"/><path class="cls-3" d="M19.77,37.44l-.83.83A30.26,30.26,0,0,0,18.19,45v.56a45.72,45.72,0,0,0,1,7.29c.25,1.15.55,2.32.93,3.51l9.26-9.26Z" transform="translate(-16.77 -13.08)"/><path class="cls-2" d="M19.21,52.83a45.72,45.72,0,0,1-1-7.29V45a30.26,30.26,0,0,1,.75-6.71l-1.17,1.17a31.62,31.62,0,0,0-.5,5.54c0,.12,0,.24,0,.36v.22a45.58,45.58,0,0,0,1,7.46c.21,1,.46,2,.77,3l.68.68.37-.37C19.76,55.15,19.46,54,19.21,52.83Z" transform="translate(-16.77 -13.08)"/><path class="cls-3" d="M19.21,52.83a45.72,45.72,0,0,1-1-7.29V45a30.26,30.26,0,0,1,.75-6.71l-1.17,1.17a31.62,31.62,0,0,0-.5,5.54c0,.12,0,.24,0,.36v.22a45.58,45.58,0,0,0,1,7.46c.21,1,.46,2,.77,3l.68.68.37-.37C19.76,55.15,19.46,54,19.21,52.83Z" transform="translate(-16.77 -13.08)"/><path class="cls-2" d="M29.4,47.08l-9.26,9.26c.12.37.24.74.38,1.12l8.88,8.88L39,56.71Z" transform="translate(-16.77 -13.08)"/><path class="cls-3" d="M29.4,47.08l-9.26,9.26c.12.37.24.74.38,1.12l8.88,8.88L39,56.71Z" transform="translate(-16.77 -13.08)"/><path class="cls-2" d="M20.14,56.34l-.37.37.75.75C20.38,57.08,20.26,56.71,20.14,56.34Z" transform="translate(-16.77 -13.08)"/><path class="cls-3" d="M20.14,56.34l-.37.37.75.75C20.38,57.08,20.26,56.71,20.14,56.34Z" transform="translate(-16.77 -13.08)"/><rect class="cls-2" x="51.49" y="59.53" width="13.62" height="13.62" transform="translate(-46.61 47.57) rotate(-45)"/><rect class="cls-3" x="51.49" y="59.53" width="13.62" height="13.62" transform="translate(-46.61 47.57) rotate(-45)"/><path class="cls-2" d="M78.06,37l-.5.49.83.83Q78.24,37.6,78.06,37Z" transform="translate(-16.77 -13.08)"/><path class="cls-3" d="M78.06,37l-.5.49.83.83Q78.24,37.6,78.06,37Z" transform="translate(-16.77 -13.08)"/><path class="cls-2" d="M78.8,36.2l-.74.75q.18.64.33,1.32l1.17,1.17A31.78,31.78,0,0,0,78.8,36.2Z" transform="translate(-16.77 -13.08)"/><path class="cls-3" d="M78.8,36.2l-.74.75q.18.64.33,1.32l1.17,1.17A31.78,31.78,0,0,0,78.8,36.2Z" transform="translate(-16.77 -13.08)"/><path class="cls-2" d="M71.23,24.51l-3.3,3.3,9.63,9.63.5-.49A30.41,30.41,0,0,0,71.23,24.51Z" transform="translate(-16.77 -13.08)"/><path class="cls-3" d="M71.23,24.51l-3.3,3.3,9.63,9.63.5-.49A30.41,30.41,0,0,0,71.23,24.51Z" transform="translate(-16.77 -13.08)"/><path class="cls-2" d="M71.88,23.86l-.65.65A30.41,30.41,0,0,1,78.06,37l.74-.75A31.44,31.44,0,0,0,71.88,23.86Z" transform="translate(-16.77 -13.08)"/><path class="cls-3" d="M71.88,23.86l-.65.65A30.41,30.41,0,0,1,78.06,37l.74-.75A31.44,31.44,0,0,0,71.88,23.86Z" transform="translate(-16.77 -13.08)"/><path class="cls-2" d="M67.93,47.08,58.3,56.71l9.63,9.63,8.88-8.88c.14-.38.26-.75.38-1.12Z" transform="translate(-16.77 -13.08)"/><path class="cls-3" d="M67.93,47.08,58.3,56.71l9.63,9.63,8.88-8.88c.14-.38.26-.75.38-1.12Z" transform="translate(-16.77 -13.08)"/><path class="cls-2" d="M77.19,56.34c-.12.37-.24.74-.38,1.12l.75-.75Z" transform="translate(-16.77 -13.08)"/><path class="cls-3" d="M77.19,56.34c-.12.37-.24.74-.38,1.12l.75-.75Z" transform="translate(-16.77 -13.08)"/><path class="cls-2" d="M78.39,38.27l-.83-.83-9.63,9.64,9.26,9.26c.38-1.19.68-2.36.93-3.51a45.44,45.44,0,0,0,1-7.31V45A30.26,30.26,0,0,0,78.39,38.27Z" transform="translate(-16.77 -13.08)"/><path class="cls-3" d="M78.39,38.27l-.83-.83-9.63,9.64,9.26,9.26c.38-1.19.68-2.36.93-3.51a45.44,45.44,0,0,0,1-7.31V45A30.26,30.26,0,0,0,78.39,38.27Z" transform="translate(-16.77 -13.08)"/><path class="cls-2" d="M79.56,39.44l-1.17-1.17A30.26,30.26,0,0,1,79.14,45v.54a45.44,45.44,0,0,1-1,7.31c-.25,1.15-.55,2.32-.93,3.51l.37.37.68-.68c.31-1,.56-2,.77-3a47,47,0,0,0,1-7.47v-.21c0-.12,0-.24,0-.36A31.62,31.62,0,0,0,79.56,39.44Z" transform="translate(-16.77 -13.08)"/><path class="cls-3" d="M79.56,39.44l-1.17-1.17A30.26,30.26,0,0,1,79.14,45v.54a45.44,45.44,0,0,1-1,7.31c-.25,1.15-.55,2.32-.93,3.51l.37.37.68-.68c.31-1,.56-2,.77-3a47,47,0,0,0,1-7.47v-.21c0-.12,0-.24,0-.36A31.62,31.62,0,0,0,79.56,39.44Z" transform="translate(-16.77 -13.08)"/><path class="cls-2" d="M36.68,45a11.94,11.94,0,0,1,2.54-7.35L39,37.44,29.4,47.08,39,56.71l2.29-2.29A11.94,11.94,0,0,1,36.68,45Z" transform="translate(-16.77 -13.08)"/><path class="cls-3" d="M36.68,45a11.94,11.94,0,0,1,2.54-7.35L39,37.44,29.4,47.08,39,56.71l2.29-2.29A11.94,11.94,0,0,1,36.68,45Z" transform="translate(-16.77 -13.08)"/><path class="cls-2" d="M37.6,45a11,11,0,0,1,2.27-6.7l-.65-.65a11.92,11.92,0,0,0,2.1,16.79l.65-.65A11,11,0,0,1,37.6,45Z" transform="translate(-16.77 -13.08)"/><path class="cls-3" d="M37.6,45a11,11,0,0,1,2.27-6.7l-.65-.65a11.92,11.92,0,0,0,2.1,16.79l.65-.65A11,11,0,0,1,37.6,45Z" transform="translate(-16.77 -13.08)"/><path class="cls-2" d="M56,54.42a11.89,11.89,0,0,1-14.69,0L39,56.71l9.64,9.63,9.63-9.63Z" transform="translate(-16.77 -13.08)"/><path class="cls-3" d="M56,54.42a11.89,11.89,0,0,1-14.69,0L39,56.71l9.64,9.63,9.63-9.63Z" transform="translate(-16.77 -13.08)"/><path class="cls-2" d="M55.36,53.77a11,11,0,0,1-13.39,0l-.65.65a11.89,11.89,0,0,0,14.69,0Z" transform="translate(-16.77 -13.08)"/><path class="cls-3" d="M55.36,53.77a11,11,0,0,1-13.39,0l-.65.65a11.89,11.89,0,0,0,14.69,0Z" transform="translate(-16.77 -13.08)"/><path class="cls-2" d="M48.67,27.81,39,37.44l.19.19a11.93,11.93,0,0,1,18.89,0l.19-.19Z" transform="translate(-16.77 -13.08)"/><path class="cls-3" d="M48.67,27.81,39,37.44l.19.19a11.93,11.93,0,0,1,18.89,0l.19-.19Z" transform="translate(-16.77 -13.08)"/><path class="cls-2" d="M48.67,33a12,12,0,0,0-9.45,4.64l.65.65a11,11,0,0,1,17.59,0l.65-.65A11.94,11.94,0,0,0,48.67,33Z" transform="translate(-16.77 -13.08)"/><path class="cls-3" d="M48.67,33a12,12,0,0,0-9.45,4.64l.65.65a11,11,0,0,1,17.59,0l.65-.65A11.94,11.94,0,0,0,48.67,33Z" transform="translate(-16.77 -13.08)"/><path class="cls-2" d="M58.3,37.44l-.19.19A11.92,11.92,0,0,1,56,54.42l2.29,2.29,9.63-9.63Z" transform="translate(-16.77 -13.08)"/><path class="cls-3" d="M58.3,37.44l-.19.19A11.92,11.92,0,0,1,56,54.42l2.29,2.29,9.63-9.63Z" transform="translate(-16.77 -13.08)"/><path class="cls-2" d="M58.11,37.63l-.65.65a11,11,0,0,1-2.1,15.49l.65.65a11.92,11.92,0,0,0,2.1-16.79Z" transform="translate(-16.77 -13.08)"/><path class="cls-3" d="M58.11,37.63l-.65.65a11,11,0,0,1-2.1,15.49l.65.65a11.92,11.92,0,0,0,2.1-16.79Z" transform="translate(-16.77 -13.08)"/><rect class="cls-2" x="51.49" y="21" width="13.62" height="13.62" transform="translate(-19.36 36.28) rotate(-45)"/><rect class="cls-3" x="51.49" y="21" width="13.62" height="13.62" transform="translate(-19.36 36.28) rotate(-45)"/><rect class="cls-2" x="32.22" y="21" width="13.62" height="13.62" transform="translate(-25 22.66) rotate(-45)"/><rect class="cls-3" x="32.22" y="21" width="13.62" height="13.62" transform="translate(-25 22.66) rotate(-45)"/><rect class="cls-2" x="22.59" y="30.63" width="13.62" height="13.62" transform="translate(-34.64 18.67) rotate(-45)"/><rect class="cls-3" x="22.59" y="30.63" width="13.62" height="13.62" transform="translate(-34.64 18.67) rotate(-45)"/><rect class="cls-2" x="61.12" y="30.63" width="13.62" height="13.62" transform="translate(-23.35 45.92) rotate(-45)"/><rect class="cls-3" x="61.12" y="30.63" width="13.62" height="13.62" transform="translate(-23.35 45.92) rotate(-45)"/><path class="cls-2" d="M55.37,15.25a30.35,30.35,0,0,0-13.41,0L39,18.18l9.64,9.63,9.63-9.63Z" transform="translate(-16.77 -13.08)"/><path class="cls-3" d="M55.37,15.25a30.35,30.35,0,0,0-13.41,0L39,18.18l9.64,9.63,9.63-9.63Z" transform="translate(-16.77 -13.08)"/><path class="cls-2" d="M54.2,14.08a30.89,30.89,0,0,0-11.07,0L42,15.25a30.35,30.35,0,0,1,13.41,0Z" transform="translate(-16.77 -13.08)"/><path class="cls-3" d="M54.2,14.08a30.89,30.89,0,0,0-11.07,0L42,15.25a30.35,30.35,0,0,1,13.41,0Z" transform="translate(-16.77 -13.08)"/><path class="cls-2" d="M39,76l-3.36,3.36c2.78,2.89,6,6,9.8,9.48l3.2-3.2Z" transform="translate(-16.77 -13.08)"/><path class="cls-3" d="M39,76l-3.36,3.36c2.78,2.89,6,6,9.8,9.48l3.2-3.2Z" transform="translate(-16.77 -13.08)"/><path class="cls-2" d="M35.67,79.33,35,80c2.78,2.9,6,6,9.79,9.47l.65-.64C41.69,85.36,38.45,82.22,35.67,79.33Z" transform="translate(-16.77 -13.08)"/><path class="cls-3" d="M35.67,79.33,35,80c2.78,2.9,6,6,9.79,9.47l.65-.64C41.69,85.36,38.45,82.22,35.67,79.33Z" transform="translate(-16.77 -13.08)"/><path class="cls-2" d="M58.3,76l-9.63,9.64,3.19,3.2c3.78-3.45,7-6.59,9.8-9.48Z" transform="translate(-16.77 -13.08)"/><path class="cls-3" d="M58.3,76l-9.63,9.64,3.19,3.2c3.78-3.45,7-6.59,9.8-9.48Z" transform="translate(-16.77 -13.08)"/><path class="cls-2" d="M61.66,79.33c-2.78,2.89-6,6-9.8,9.48l.65.64c3.77-3.43,7-6.57,9.79-9.47Z" transform="translate(-16.77 -13.08)"/><path class="cls-3" d="M61.66,79.33c-2.78,2.89-6,6-9.8,9.48l.65.64c3.77-3.43,7-6.57,9.79-9.47Z" transform="translate(-16.77 -13.08)"/><path class="cls-2" d="M48.67,85.61l-3.2,3.2c1,.93,2.08,1.89,3.2,2.87q1.66-1.47,3.19-2.87Z" transform="translate(-16.77 -13.08)"/><path class="cls-3" d="M48.67,85.61l-3.2,3.2c1,.93,2.08,1.89,3.2,2.87q1.66-1.47,3.19-2.87Z" transform="translate(-16.77 -13.08)"/><path class="cls-2" d="M51.86,88.81q-1.53,1.39-3.19,2.87c-1.12-1-2.18-1.94-3.2-2.87l-.65.64c1.13,1,2.31,2.09,3.54,3.18l.31.27.3-.27c1.23-1.09,2.41-2.14,3.54-3.18Z" transform="translate(-16.77 -13.08)"/><path class="cls-3" d="M51.86,88.81q-1.53,1.39-3.19,2.87c-1.12-1-2.18-1.94-3.2-2.87l-.65.64c1.13,1,2.31,2.09,3.54,3.18l.31.27.3-.27c1.23-1.09,2.41-2.14,3.54-3.18Z" transform="translate(-16.77 -13.08)"/><path class="cls-2" d="M29.4,66.34l-2.59,2.59a100.2,100.2,0,0,0,8.86,10.4L39,76Z" transform="translate(-16.77 -13.08)"/><path class="cls-3" d="M29.4,66.34l-2.59,2.59a100.2,100.2,0,0,0,8.86,10.4L39,76Z" transform="translate(-16.77 -13.08)"/><path class="cls-2" d="M26.81,68.93l-.65.66A101.9,101.9,0,0,0,35,80l.64-.65A100.2,100.2,0,0,1,26.81,68.93Z" transform="translate(-16.77 -13.08)"/><path class="cls-3" d="M26.81,68.93l-.65.66A101.9,101.9,0,0,0,35,80l.64-.65A100.2,100.2,0,0,1,26.81,68.93Z" transform="translate(-16.77 -13.08)"/><path class="cls-2" d="M77.56,56.71l.36.35c.11-.35.22-.69.32-1Z" transform="translate(-16.77 -13.08)"/><path class="cls-3" d="M77.56,56.71l.36.35c.11-.35.22-.69.32-1Z" transform="translate(-16.77 -13.08)"/><path class="cls-2" d="M20.52,57.46a45.37,45.37,0,0,0,6.29,11.47l2.59-2.59Z" transform="translate(-16.77 -13.08)"/><path class="cls-3" d="M20.52,57.46a45.37,45.37,0,0,0,6.29,11.47l2.59-2.59Z" transform="translate(-16.77 -13.08)"/><path class="cls-2" d="M20.52,57.46l-.75-.75-.36.35a45.69,45.69,0,0,0,6.75,12.53l.65-.66A45.37,45.37,0,0,1,20.52,57.46Z" transform="translate(-16.77 -13.08)"/><path class="cls-3" d="M20.52,57.46l-.75-.75-.36.35a45.69,45.69,0,0,0,6.75,12.53l.65-.66A45.37,45.37,0,0,1,20.52,57.46Z" transform="translate(-16.77 -13.08)"/><path class="cls-2" d="M67.93,66.34,58.3,76l3.36,3.36a100.2,100.2,0,0,0,8.86-10.4Z" transform="translate(-16.77 -13.08)"/><path class="cls-3" d="M67.93,66.34,58.3,76l3.36,3.36a100.2,100.2,0,0,0,8.86-10.4Z" transform="translate(-16.77 -13.08)"/><path class="cls-2" d="M70.52,68.93a100.2,100.2,0,0,1-8.86,10.4l.64.65a101.9,101.9,0,0,0,8.87-10.39Z" transform="translate(-16.77 -13.08)"/><path class="cls-3" d="M70.52,68.93a100.2,100.2,0,0,1-8.86,10.4l.64.65a101.9,101.9,0,0,0,8.87-10.39Z" transform="translate(-16.77 -13.08)"/><path class="cls-2" d="M67.93,66.34l2.59,2.59a45.37,45.37,0,0,0,6.29-11.47Z" transform="translate(-16.77 -13.08)"/><path class="cls-3" d="M67.93,66.34l2.59,2.59a45.37,45.37,0,0,0,6.29-11.47Z" transform="translate(-16.77 -13.08)"/><path class="cls-2" d="M77.56,56.71l-.75.75a45.37,45.37,0,0,1-6.29,11.47l.65.66a45.69,45.69,0,0,0,6.75-12.53Z" transform="translate(-16.77 -13.08)"/><path class="cls-3" d="M77.56,56.71l-.75.75a45.37,45.37,0,0,1-6.29,11.47l.65.66a45.69,45.69,0,0,0,6.75-12.53Z" transform="translate(-16.77 -13.08)"/><path class="cls-2" d="M37.49,16.63A30.63,30.63,0,0,0,26.1,24.51l3.3,3.3L39,18.18Z" transform="translate(-16.77 -13.08)"/><path class="cls-3" d="M37.49,16.63A30.63,30.63,0,0,0,26.1,24.51l3.3,3.3L39,18.18Z" transform="translate(-16.77 -13.08)"/><path class="cls-2" d="M36.78,15.93a31.5,31.5,0,0,0-11.33,7.93l.65.65a30.63,30.63,0,0,1,11.39-7.88Z" transform="translate(-16.77 -13.08)"/><path class="cls-3" d="M36.78,15.93a31.5,31.5,0,0,0-11.33,7.93l.65.65a30.63,30.63,0,0,1,11.39-7.88Z" transform="translate(-16.77 -13.08)"/><path class="cls-2" d="M59.84,16.63,58.3,18.18l9.63,9.63,3.3-3.3A30.75,30.75,0,0,0,59.84,16.63Z" transform="translate(-16.77 -13.08)"/><path class="cls-3" d="M59.84,16.63,58.3,18.18l9.63,9.63,3.3-3.3A30.75,30.75,0,0,0,59.84,16.63Z" transform="translate(-16.77 -13.08)"/><path class="cls-2" d="M60.55,15.93l-.71.7a30.75,30.75,0,0,1,11.39,7.88l.65-.65A31.5,31.5,0,0,0,60.55,15.93Z" transform="translate(-16.77 -13.08)"/><path class="cls-3" d="M60.55,15.93l-.71.7a30.75,30.75,0,0,1,11.39,7.88l.65-.65A31.5,31.5,0,0,0,60.55,15.93Z" transform="translate(-16.77 -13.08)"/><path class="cls-2" d="M37.49,16.63,39,18.18,42,15.25A30.48,30.48,0,0,0,37.49,16.63Z" transform="translate(-16.77 -13.08)"/><path class="cls-3" d="M37.49,16.63,39,18.18,42,15.25A30.48,30.48,0,0,0,37.49,16.63Z" transform="translate(-16.77 -13.08)"/><path class="cls-2" d="M36.78,15.93l.71.7A30.48,30.48,0,0,1,42,15.25l1.17-1.17A31.38,31.38,0,0,0,36.78,15.93Z" transform="translate(-16.77 -13.08)"/><path class="cls-3" d="M36.78,15.93l.71.7A30.48,30.48,0,0,1,42,15.25l1.17-1.17A31.38,31.38,0,0,0,36.78,15.93Z" transform="translate(-16.77 -13.08)"/><path class="cls-2" d="M55.37,15.25l2.93,2.93,1.54-1.55A30.48,30.48,0,0,0,55.37,15.25Z" transform="translate(-16.77 -13.08)"/><path class="cls-3" d="M55.37,15.25l2.93,2.93,1.54-1.55A30.48,30.48,0,0,0,55.37,15.25Z" transform="translate(-16.77 -13.08)"/><path class="cls-2" d="M54.2,14.08l1.17,1.17a30.48,30.48,0,0,1,4.47,1.38l.71-.7A31.38,31.38,0,0,0,54.2,14.08Z" transform="translate(-16.77 -13.08)"/><path class="cls-3" d="M54.2,14.08l1.17,1.17a30.48,30.48,0,0,1,4.47,1.38l.71-.7A31.38,31.38,0,0,0,54.2,14.08Z" transform="translate(-16.77 -13.08)"/><path class="cls-2" d="M19.27,36.94c-.12.44-.23.89-.33,1.33l.83-.83Z" transform="translate(-16.77 -13.08)"/><path class="cls-3" d="M19.27,36.94c-.12.44-.23.89-.33,1.33l.83-.83Z" transform="translate(-16.77 -13.08)"/><path class="cls-2" d="M18.53,36.2a31.78,31.78,0,0,0-.76,3.24l1.17-1.17c.1-.44.21-.89.33-1.33Z" transform="translate(-16.77 -13.08)"/><path class="cls-3" d="M18.53,36.2a31.78,31.78,0,0,0-.76,3.24l1.17-1.17c.1-.44.21-.89.33-1.33Z" transform="translate(-16.77 -13.08)"/><path class="cls-2" d="M26.1,24.51a30.38,30.38,0,0,0-6.83,12.43l.5.5,9.63-9.63Z" transform="translate(-16.77 -13.08)"/><path class="cls-3" d="M26.1,24.51a30.38,30.38,0,0,0-6.83,12.43l.5.5,9.63-9.63Z" transform="translate(-16.77 -13.08)"/><path class="cls-2" d="M25.45,23.86A31.44,31.44,0,0,0,18.53,36.2l.74.74A30.38,30.38,0,0,1,26.1,24.51Z" transform="translate(-16.77 -13.08)"/><path class="cls-3" d="M25.45,23.86A31.44,31.44,0,0,0,18.53,36.2l.74.74A30.38,30.38,0,0,1,26.1,24.51Z" transform="translate(-16.77 -13.08)"/><path class="cls-2" d="M19.09,56c.1.34.21.68.32,1l.36-.35Z" transform="translate(-16.77 -13.08)"/><path class="cls-3" d="M19.09,56c.1.34.21.68.32,1l.36-.35Z" transform="translate(-16.77 -13.08)"/></g></svg>